<svg viewBox="0 0 330 200" xmlns="http://www.w3.org/2000/svg"><g><g><g><g><g><line x1="51.53200149536133" y1="165.1039981842041" x2="46.53200149536133" y2="165.1039981842041" style="visibility: inherit;" fill="rgb(0, 0, 0)" stroke="rgb(204, 204, 204)" stroke-width="1px"></line><line x1="51.53200149536133" y1="144.4659984111786" x2="46.53200149536133" y2="144.4659984111786" style="visibility: inherit;" fill="rgb(0, 0, 0)" stroke="rgb(204, 204, 204)" stroke-width="1px"></line><line x1="51.53200149536133" y1="123.82799863815308" x2="46.53200149536133" y2="123.82799863815308" style="visibility: inherit;" fill="rgb(0, 0, 0)" stroke="rgb(204, 204, 204)" stroke-width="1px"></line><line x1="51.53200149536133" y1="103.18999886512756" x2="46.53200149536133" y2="103.18999886512756" style="visibility: inherit;" fill="rgb(0, 0, 0)" stroke="rgb(204, 204, 204)" stroke-width="1px"></line><line x1="51.53200149536133" y1="82.55199909210205" x2="46.53200149536133" y2="82.55199909210205" style="visibility: inherit;" fill="rgb(0, 0, 0)" stroke="rgb(204, 204, 204)" stroke-width="1px"></line><line x1="51.53200149536133" y1="61.91399931907654" x2="46.53200149536133" y2="61.91399931907654" style="visibility: inherit;" fill="rgb(0, 0, 0)" stroke="rgb(204, 204, 204)" stroke-width="1px"></line><line x1="51.53200149536133" y1="41.275999546051025" x2="46.53200149536133" y2="41.275999546051025" style="visibility: inherit;" fill="rgb(0, 0, 0)" stroke="rgb(204, 204, 204)" stroke-width="1px"></line><line x1="51.53200149536133" y1="20.637999773025513" x2="46.53200149536133" y2="20.637999773025513" style="visibility: inherit;" fill="rgb(0, 0, 0)" stroke="rgb(204, 204, 204)" stroke-width="1px"></line><line x1="51.53200149536133" y1="0" x2="46.53200149536133" y2="0" style="visibility: inherit;" fill="rgb(0, 0, 0)" stroke="rgb(204, 204, 204)" stroke-width="1px"></line></g><g transform="translate(41.53200149536133, 0)"><text style="text-anchor: end; visibility: hidden; font-family: Roboto, sans-serif; font-size: 12px; font-weight: 200;" x="0" y="165.1039981842041" dx="0em" dy="0.3em" fill="rgb(50, 49, 63)" stroke="none" stroke-width="1px">-0.5</text><text style="text-anchor: end; visibility: inherit; font-family: Roboto, sans-serif; font-size: 12px; font-weight: 200;" x="0" y="144.4659984111786" dx="0em" dy="0.3em" fill="rgb(50, 49, 63)" stroke="none" stroke-width="1px">0</text><text style="text-anchor: end; visibility: hidden; font-family: Roboto, sans-serif; font-size: 12px; font-weight: 200;" x="0" y="123.82799863815308" dx="0em" dy="0.3em" fill="rgb(50, 49, 63)" stroke="none" stroke-width="1px">0.5</text><text style="text-anchor: end; visibility: inherit; font-family: Roboto, sans-serif; font-size: 12px; font-weight: 200;" x="0" y="103.18999886512756" dx="0em" dy="0.3em" fill="rgb(50, 49, 63)" stroke="none" stroke-width="1px">1</text><text style="text-anchor: end; visibility: hidden; font-family: Roboto, sans-serif; font-size: 12px; font-weight: 200;" x="0" y="82.55199909210205" dx="0em" dy="0.3em" fill="rgb(50, 49, 63)" stroke="none" stroke-width="1px">1.5</text><text style="text-anchor: end; visibility: inherit; font-family: Roboto, sans-serif; font-size: 12px; font-weight: 200;" x="0" y="61.91399931907654" dx="0em" dy="0.3em" fill="rgb(50, 49, 63)" stroke="none" stroke-width="1px">2</text><text style="text-anchor: end; visibility: hidden; font-family: Roboto, sans-serif; font-size: 12px; font-weight: 200;" x="0" y="41.275999546051025" dx="0em" dy="0.3em" fill="rgb(50, 49, 63)" stroke="none" stroke-width="1px">2.5</text><text style="text-anchor: end; visibility: inherit; font-family: Roboto, sans-serif; font-size: 12px; font-weight: 200;" x="0" y="20.637999773025513" dx="0em" dy="0.3em" fill="rgb(50, 49, 63)" stroke="none" stroke-width="1px">3</text><text style="text-anchor: end; visibility: hidden; font-family: Roboto, sans-serif; font-size: 12px; font-weight: 200;" x="0" y="0" dx="0em" dy="0.3em" fill="rgb(50, 49, 63)" stroke="none" stroke-width="1px">3.5</text></g><line x1="51.53200149536133" y1="0" x2="51.53200149536133" y2="165.1039981842041" fill="rgb(0, 0, 0)" stroke="rgb(204, 204, 204)" stroke-width="1px"></line></g></g><g transform="translate(51, 0)" clip-path="url(#clip_0)"><clipPath id="clip_0"><rect width="278" height="165"></rect></clipPath><g><g><g><line x1="8.702124953269958" y1="0" x2="8.702124953269958" y2="165.1039981842041" fill="rgb(0, 0, 0)" stroke="rgb(60, 60, 60)" stroke-width="1px" opacity="0.25"></line><line x1="52.21274971961975" y1="0" x2="52.21274971961975" y2="165.1039981842041" fill="rgb(0, 0, 0)" stroke="rgb(60, 60, 60)" stroke-width="1px" opacity="0.25"></line><line x1="95.72337448596954" y1="0" x2="95.72337448596954" y2="165.1039981842041" fill="rgb(0, 0, 0)" stroke="rgb(60, 60, 60)" stroke-width="1px" opacity="0.25"></line><line x1="139.23399925231934" y1="0" x2="139.23399925231934" y2="165.1039981842041" fill="rgb(0, 0, 0)" stroke="rgb(60, 60, 60)" stroke-width="1px" opacity="0.25"></line><line x1="182.74462401866913" y1="0" x2="182.74462401866913" y2="165.1039981842041" fill="rgb(0, 0, 0)" stroke="rgb(60, 60, 60)" stroke-width="1px" opacity="0.25"></line><line x1="226.25524878501892" y1="0" x2="226.25524878501892" y2="165.1039981842041" fill="rgb(0, 0, 0)" stroke="rgb(60, 60, 60)" stroke-width="1px" opacity="0.25"></line><line x1="269.7658735513687" y1="0" x2="269.7658735513687" y2="165.1039981842041" fill="rgb(0, 0, 0)" stroke="rgb(60, 60, 60)" stroke-width="1px" opacity="0.25"></line></g><g><line x1="0" y1="165.1039981842041" x2="278.4679985046387" y2="165.1039981842041" fill="rgb(0, 0, 0)" stroke="rgb(60, 60, 60)" stroke-width="1px" opacity="0.25"></line><line x1="0" y1="144.4659984111786" x2="278.4679985046387" y2="144.4659984111786" fill="rgb(0, 0, 0)" stroke="rgb(60, 60, 60)" stroke-width="1px" opacity="0.25"></line><line x1="0" y1="123.82799863815308" x2="278.4679985046387" y2="123.82799863815308" fill="rgb(0, 0, 0)" stroke="rgb(60, 60, 60)" stroke-width="1px" opacity="0.25"></line><line x1="0" y1="103.18999886512756" x2="278.4679985046387" y2="103.18999886512756" fill="rgb(0, 0, 0)" stroke="rgb(60, 60, 60)" stroke-width="1px" opacity="0.25"></line><line x1="0" y1="82.55199909210205" x2="278.4679985046387" y2="82.55199909210205" fill="rgb(0, 0, 0)" stroke="rgb(60, 60, 60)" stroke-width="1px" opacity="0.25"></line><line x1="0" y1="61.91399931907654" x2="278.4679985046387" y2="61.91399931907654" fill="rgb(0, 0, 0)" stroke="rgb(60, 60, 60)" stroke-width="1px" opacity="0.25"></line><line x1="0" y1="41.275999546051025" x2="278.4679985046387" y2="41.275999546051025" fill="rgb(0, 0, 0)" stroke="rgb(60, 60, 60)" stroke-width="1px" opacity="0.25"></line><line x1="0" y1="20.637999773025513" x2="278.4679985046387" y2="20.637999773025513" fill="rgb(0, 0, 0)" stroke="rgb(60, 60, 60)" stroke-width="1px" opacity="0.25"></line><line x1="0" y1="0" x2="278.4679985046387" y2="0" fill="rgb(0, 0, 0)" stroke="rgb(60, 60, 60)" stroke-width="1px" opacity="0.25"></line></g></g></g><g><g><line x1="0" y1="144.4659984111786" x2="278.4679985046387" y2="144.4659984111786" fill="rgb(0, 0, 0)" stroke="rgb(153, 153, 153)" stroke-width="1.5px"></line></g></g><g><g><line x1="-140610121042.35437" y1="0" x2="-140610121042.35437" y2="165.1039981842041" fill="rgb(0, 0, 0)" stroke="rgb(153, 153, 153)" stroke-width="1.5px"></line></g></g><g><g><g><g><g><path style="fill: none;" stroke="rgb(255, 112, 67)" stroke-width="2px" d="M7.5708487093448635,25.735294975488046L13.401272428035737,27.415811993920727L19.405738645792006,29.78573983519123L25.671268612146378,33.40010471839982L32.632968574762344,38.89765267086088L39.68168978691101,46.49492853487532L46.38232600092888,55.63024264340207L52.125728470087054,65.63823702843915L58.39125843644142,75.83776916889664L65.5270008981228,85.68150285018693L71.87955211400985,94.86356655265871L78.14508208036423,103.08241530245608L85.01976079344749,110.43074605873969L92.24252450466156,116.75438598581984L100.07443696260452,122.05632156080361L107.2101794242859,126.29246950337019L114.51996438503265,129.70675875384632L120.87251560091973,132.3937649561061L127.13804556727409,134.41893183719205L133.75166053175926,135.96293814402196L140.01719049811362,137.2139609486173L146.28272046446799,138.09079395542395L152.72229292988777,138.8267621122616L159.16186539530753,139.35098471866507L165.3403741121292,139.80806114117544L171.5188828289509,140.16492871022842L178.13249779343604,140.48361869586884L184.39802775979044,140.76254185654412L190.4895152270794,140.99176679819846L196.84206644296648,141.12296584834039L200.75802267193794,141.22164040263033L207.2846163868904,141.3105569712117L213.72418885231016,141.32631429610254L217.90120882987975,141.43013395422906L223.99269629716872,141.5278064778109L230.9543962597847,141.68203059096018L237.56801122426987,141.738852318047L241.39694620370864,141.83271568633273L247.14034867286682,141.7999230292613L251.14332615137099,141.8310960711654L254.97226113080978,141.82536970024503" fill="none"></path></g></g></g></g><g opacity="0.2"><g><g><g><path style="fill: none;" stroke="rgb(255, 112, 67)" stroke-width="2px" d="M7.5708487093448635,25.735294975488046L13.401272428035737,28.424122204980335L19.405738645792006,32.06087056281092L25.671268612146378,37.65059782105311L32.632968574762344,46.07525127759402L39.68168978691101,57.00469607411833L46.38232600092888,68.6938879836211L52.125728470087054,80.22998891856929L58.39125843644142,90.88009791894848L65.5270008981228,100.29830013880485L71.87955211400985,108.55338146438484L78.14508208036423,115.36596181520011L85.01976079344749,121.42924861828106L92.24252450466156,126.2274572075168L100.07443696260452,130.00299269703788L107.2101794242859,132.64370375748746L114.51996438503265,134.82674781677585L120.87251560091973,136.4235920289121L127.13804556727409,137.45637364502988L133.75166053175926,138.27880647597453L140.01719049811362,139.09042654644657L146.28272046446799,139.40601461307037L152.72229292988777,139.93069981711068L159.16186539530753,140.13731241835376L165.3403741121292,140.49367252623736L171.5188828289509,140.70022854193076L178.13249779343604,140.96165285888915L184.39802775979044,141.1809261693443L190.4895152270794,141.33560399953137L196.84206644296648,141.31976435104156L200.75802267193794,141.36965220134374L207.2846163868904,141.4439318063923L213.72418885231016,141.3499502815577L217.90120882987975,141.58586343398244L223.99269629716872,141.67431525898604L230.9543962597847,141.9133667567072L237.56801122426987,141.82408490779818L241.39694620370864,141.97351073788994L247.14034867286682,141.75073404383684L251.14332615137099,141.87785563391736L254.97226113080978,141.81678014387595" fill="none"></path></g></g></g></g></g></g><g transform="translate(51, 165)" clip-path="url(#clip_1)"><clipPath id="clip_1"><rect width="278" height="34"></rect></clipPath><g><g visibility="inherit"><g><g transform="translate(26.106374859809875,0)" style="visibility: hidden;"><text transform="translate(0,14.44800090789795)" style="text-anchor: middle; font-family: Roboto, sans-serif; font-size: 12px; font-weight: 200;" fill="rgb(50, 49, 63)" stroke="none" stroke-width="1px">06:37:09 PM</text></g><g transform="translate(95.72337448596954,0)" style="visibility: inherit;"><text transform="translate(0,14.44800090789795)" style="text-anchor: middle; font-family: Roboto, sans-serif; font-size: 12px; font-weight: 200;" fill="rgb(50, 49, 63)" stroke="none" stroke-width="1px">06:37:10 PM</text></g><g transform="translate(182.74462401866913,0)" style="visibility: inherit;"><text transform="translate(0,14.44800090789795)" style="text-anchor: middle; font-family: Roboto, sans-serif; font-size: 12px; font-weight: 200;" fill="rgb(50, 49, 63)" stroke="none" stroke-width="1px">06:37:11 PM</text></g><g transform="translate(252.3616236448288,0)" style="visibility: hidden;"><text transform="translate(0,14.44800090789795)" style="text-anchor: middle; font-family: Roboto, sans-serif; font-size: 12px; font-weight: 200;" fill="rgb(50, 49, 63)" stroke="none" stroke-width="1px">06:37:12 PM</text></g></g><g><line x1="0" y1="0" x2="0" y2="17.44800090789795" fill="rgb(0, 0, 0)" stroke="rgb(204, 204, 204)" stroke-width="1px"></line><line x1="52.21274971961975" y1="0" x2="52.21274971961975" y2="17.44800090789795" fill="rgb(0, 0, 0)" stroke="rgb(204, 204, 204)" stroke-width="1px"></line><line x1="139.23399925231934" y1="0" x2="139.23399925231934" y2="17.44800090789795" fill="rgb(0, 0, 0)" stroke="rgb(204, 204, 204)" stroke-width="1px"></line><line x1="226.25524878501892" y1="0" x2="226.25524878501892" y2="17.44800090789795" fill="rgb(0, 0, 0)" stroke="rgb(204, 204, 204)" stroke-width="1px"></line><line x1="278.4679985046387" y1="0" x2="278.4679985046387" y2="17.44800090789795" fill="rgb(0, 0, 0)" stroke="rgb(204, 204, 204)" stroke-width="1px"></line></g><line style="visibility: inherit;" x1="0" y1="0" x2="278.4679985046387" y2="0" fill="rgb(0, 0, 0)" stroke="rgb(204, 204, 204)" stroke-width="1px"></line></g><g visibility="inherit"><g><g transform="translate(139.23399925231934,0)" style="visibility: inherit;"><text transform="translate(0,31.8960018157959)" style="text-anchor: middle; font-family: Roboto, sans-serif; font-size: 12px; font-weight: 200;" fill="rgb(50, 49, 63)" stroke="none" stroke-width="1px">March 15, 2021</text></g></g><g><line x1="0" y1="17.44800090789795" x2="0" y2="34.8960018157959" fill="rgb(0, 0, 0)" stroke="rgb(204, 204, 204)" stroke-width="1px"></line><line x1="278.4679985046387" y1="17.44800090789795" x2="278.4679985046387" y2="34.8960018157959" fill="rgb(0, 0, 0)" stroke="rgb(204, 204, 204)" stroke-width="1px"></line></g><line style="visibility: inherit;" x1="0" y1="17.44800090789795" x2="278.4679985046387" y2="17.44800090789795" fill="rgb(0, 0, 0)" stroke="rgb(204, 204, 204)" stroke-width="1px"></line></g></g></g></g></g></svg>